<?xml version="1.0" encoding="UTF-8"?>
<svg width="244px" height="24px" viewBox="0 0 244 24" version="1.1" xmlns="http://www.w3.org/2000/svg" xmlns:xlink="http://www.w3.org/1999/xlink">
    <title>logo</title>
    <g id="Website" stroke="none" stroke-width="1" fill="none" fill-rule="evenodd">
        <g id="Landing-Page-female" transform="translate(-94.000000, -28.000000)" fill="#FFFFFF">
            <g id="Navbar">
                <g id="logo" transform="translate(94.000000, 28.000000)">
                    <path d="M3.994849,5.39101028 C3.99423959,4.43390569 3.99375206,3.47668083 3.99314264,2.51957625 C3.99289887,2.11883831 3.99070497,1.70703558 3.8416418,1.33420017 C3.6927005,0.961364753 3.36093438,0.631345277 2.95579456,0.603442755 C2.70642149,0.586244219 2.38343096,0.710723139 2.15112154,0.60476572 C1.9865792,0.529717559 1.79668514,0.303250112 1.94318877,0.128618815 C2.02996962,0.0250667855 2.18500508,0.0164073823 2.3213924,0.0161668433 C4.6558217,0.0108749858 6.99037289,0.00558312835 9.32480219,0.000411540343 C10.4797676,-0.0022343884 11.6549656,-0.00199384943 12.7599588,0.3297094 C14.3721082,0.81391436 15.8092332,2.29070341 16.0043683,3.97784379 C16.0811547,4.64064894 15.8728563,5.2383883 15.6101979,5.81832777 C15.2154182,6.68992076 14.592473,7.3752163 13.7545259,7.8639915 C13.6798115,7.90764933 13.5517122,7.92556948 13.5685321,8.041389 C13.5842551,8.14951127 13.7068696,8.15143558 13.7923097,8.17669217 C14.9155855,8.50791434 15.9052772,9.07342148 16.8319553,9.77796014 C17.4440528,10.2432828 17.9953306,10.7674172 18.4527584,11.3651566 C20.5994875,14.1710437 20.4951555,17.9229707 18.2468976,20.6391368 C17.042082,22.0945179 15.4713729,23.0217957 13.6425152,23.5046777 C9.1373458,24.6940226 2.74591166,23.9233358 0.550307342,19.1879652 C0.116524964,18.2522686 -0.0520395284,17.2735155 0.01377741,16.257118 C0.080447531,15.2278517 0.40941034,14.2691836 0.962882039,13.3979515 C1.48222644,12.5802392 2.16538188,11.9046855 2.94701897,11.3235433 C4.90385405,9.8684028 7.5066702,9.31600504 9.90252865,9.80249512 C12.0468201,10.2378707 15.179097,11.9663838 14.9951752,14.5175401 C14.8801174,16.1131554 13.0181075,17.2727939 11.5141905,16.6434236 C10.1654308,16.0789989 9.57332207,14.2401987 10.3250978,12.9993784 C10.5695955,12.5958743 10.9241538,12.2615251 11.137937,11.8414238 C11.351842,11.4212022 11.382069,10.8465545 11.0236105,10.5368606 C10.8743036,10.4078115 10.6790466,10.3437078 10.4862274,10.2974041 C8.32036258,9.77808041 6.03566163,11.2748342 5.1083741,13.2749158 C4.10137494,15.4468625 4.25750734,18.3178154 5.2645065,20.4617393 C5.72400624,21.4395303 6.38839167,22.3550216 7.31580108,22.9243774 C9.13064222,24.0385539 11.5999962,23.5704651 13.3236687,22.3233907 C15.9571995,20.417841 17.1450733,16.7749984 16.13198,13.7116143 C15.6288461,12.1904458 14.6077084,10.8698868 13.2980733,9.93467129 C12.6401476,9.46501893 11.9120173,9.09134163 11.1445187,8.82927442 C10.7594896,8.69781987 10.3645879,8.59438811 9.96395779,8.52078318 C9.77101665,8.48542395 9.57685668,8.45704035 9.38123412,8.43563238 C9.23363354,8.41999735 8.42786358,8.47099161 8.89053228,8.12870465 C8.97134085,8.06893071 9.07152886,8.04199035 9.16842602,8.01408782 C10.7020826,7.57354069 11.5999962,6.41378201 11.8265771,4.88022576 C11.9855129,3.80417465 11.8658235,2.64261193 11.2412939,1.74660424 C10.6167643,0.850596554 9.40877972,0.306617658 8.36716573,0.661653188 C8.2991549,0.684865199 8.22834075,0.714692032 8.18848493,0.773624081 C8.14960419,0.831233166 8.14814159,0.904838093 8.14789782,0.973993049 C8.14119424,3.18743271 8.13436878,5.40075211 8.12766521,7.61407151 C8.12644637,7.97091108 8.06989256,8.17633136 7.7064368,8.27543342 C6.47005342,8.61278934 5.23354816,8.95014525 3.9970429,9.28750117 C3.9963116,7.98871096 3.9955803,6.68980049 3.994849,5.39101028" id="Fill-1"></path>
                    <text id="CUTRA-BEAUTY" font-family="GTAmerica-Regular, GT America" font-size="20" font-weight="normal" letter-spacing="4.65714286">
                        <tspan x="39" y="20">CUT</tspan>
                        <tspan x="92.3914286" y="20" letter-spacing="4.85514286">R</tspan>
                        <tspan x="110.746571" y="20">A B</tspan>
                        <tspan x="156.518" y="20" letter-spacing="4.85714286">E</tspan>
                        <tspan x="173.815143" y="20" letter-spacing="4.15714286">A</tspan>
                        <tspan x="190.912286" y="20">U</tspan>
                        <tspan x="209.889429" y="20" letter-spacing="5.45714286">T</tspan>
                        <tspan x="227.366571" y="20">Y</tspan>
                    </text>
                </g>
            </g>
        </g>
    </g>
</svg>