<?xml version="1.0" encoding="UTF-8"?>
<svg width="12px" height="15px" viewBox="0 0 12 15" version="1.1" xmlns="http://www.w3.org/2000/svg" xmlns:xlink="http://www.w3.org/1999/xlink">
    <title>Fill 1</title>
    <g id="Website" stroke="none" stroke-width="1" fill="none" fill-rule="evenodd">
        <g id="Landing-Page-female" transform="translate(-1333.000000, -32.000000)" fill="#FFFFFF">
            <g id="Navbar">
                <path d="M1336,35.7317243 L1336,35.4523511 C1336.00007,34.7747117 1336.33552,34.162454 1336.87868,33.7182585 C1337.42212,33.2742647 1338.17107,33.0000672 1339.00003,33 C1339.82896,33.0000672 1340.57788,33.2742647 1341.12132,33.7182585 C1341.66443,34.162454 1341.99992,34.7746915 1342,35.4523511 L1342,36 L1336,36 L1336,35.7317243 Z M1342.77145,35.5775695 C1342.77154,34.5901813 1342.34898,33.6946642 1341.66682,33.0478282 C1340.98494,32.4006917 1340.04085,32 1339.00005,32 C1337.95918,32 1337.01514,32.4006917 1336.33322,33.0478282 C1335.65099,33.6946642 1335.22848,34.5901813 1335.22856,35.5775695 L1335.22856,36.2977149 L1333,36.2977149 L1333,46.2463111 C1333.00115,46.2522331 1333.00275,46.2581552 1333.00323,46.2643424 C1333.01885,46.4701108 1333.11654,46.653517 1333.26603,46.786365 C1333.41581,46.9191245 1333.61496,47 1333.83623,47 L1344.16382,47 C1344.38502,47 1344.58424,46.9191245 1344.73398,46.786365 C1344.88343,46.653517 1344.98118,46.4701108 1344.99674,46.2643424 C1344.9973,46.2580668 1344.99888,46.2520564 1345,46.2459576 L1345,36.2977149 L1342.77145,36.2977149 L1342.77145,35.5775695 L1342.77145,35.5775695 Z" id="Fill-1"></path>
            </g>
        </g>
    </g>
</svg>