<?xml version="1.0" encoding="UTF-8"?>
<svg width="7px" height="5px" viewBox="0 0 7 5" version="1.1" xmlns="http://www.w3.org/2000/svg" xmlns:xlink="http://www.w3.org/1999/xlink">
    <title>down, bottom, downward, arrow, navigation</title>
    <g id="Website" stroke="none" stroke-width="1" fill="none" fill-rule="evenodd">
        <g id="Shop/Search/Category" transform="translate(-1334.000000, -215.000000)" fill="#02020A">
            <g id="Group-12" transform="translate(1223.000000, 211.000000)">
                <g id="down,-bottom,-downward,-arrow,-navigation" transform="translate(110.000000, 4.000000)">
                    <path d="M7.77848324,0.153311773 C7.53086214,-0.0658030857 7.16452181,-0.0301546848 6.95786216,0.233166015 L4.49127869,3.40138305 L2.02469522,0.233166015 C1.89269347,0.0571850361 1.68219991,-0.0287475683 1.47426117,0.00845495853 C1.26632243,0.0456574853 1.09336726,0.200193286 1.02198884,0.412561214 C0.950610418,0.624929142 0.991940445,0.862009714 1.13006556,1.03251945 L4.04378904,4.77568702 C4.15444107,4.91776576 4.31831181,4.99990734 4.49110386,4.99990734 C4.66389592,4.99990734 4.82776666,4.91776576 4.93841869,4.77568702 L7.85214217,1.03251945 C8.05833001,0.767871398 8.02537019,0.374456424 7.77848324,0.153311773 Z" id="Path"></path>
                </g>
            </g>
        </g>
    </g>
</svg>