<?xml version="1.0" encoding="UTF-8"?>
<svg width="29px" height="29px" viewBox="0 0 29 29" version="1.1" xmlns="http://www.w3.org/2000/svg" xmlns:xlink="http://www.w3.org/1999/xlink">
    <title>twitter</title>
    <g id="Website" stroke="none" stroke-width="1" fill="none" fill-rule="evenodd">
        <g id="Checkout-Page" transform="translate(-1147.000000, -1134.000000)">
            <g id="Footer" transform="translate(0.000000, 916.000000)">
                <g id="Group-17" transform="translate(1102.000000, 113.000000)">
                    <g id="twitter" transform="translate(45.000000, 105.000000)">
                        <rect id="Rectangle" x="0" y="0" width="29" height="29"></rect>
                        <circle id="Oval" stroke="#FFFFFF" cx="14.5" cy="14.5" r="14"></circle>
                        <path d="M20.350766,10.8971544 C20.9440629,10.5227503 21.3993074,9.92907699 21.61296,9.22186913 C21.0574632,9.56940633 20.4436227,9.82074245 19.7886952,9.95681063 C19.266068,9.36747075 18.5191055,9 17.6924341,9 C16.1064741,9 14.8212714,10.3563484 14.8212714,12.0290337 C14.8212714,12.266503 14.8451018,12.4979055 14.8944063,12.718908 C12.5080707,12.5923732 10.3920878,11.3876932 8.97458473,9.55380615 C8.72724071,10.0027445 8.58590127,10.5227503 8.58590127,11.0774231 C8.58590127,12.1278348 9.09291542,13.0551784 9.8637084,13.5994511 C9.39285085,13.5838509 8.9499325,13.4460494 8.56207079,13.2207136 L8.56207079,13.2579806 C8.56207079,14.7261303 9.55144685,15.9507439 10.8670541,16.2280803 C10.6254622,16.2991478 10.372366,16.3346815 10.1094089,16.3346815 C9.92451723,16.3346815 9.74373423,16.3164813 9.56952515,16.2809476 C9.93437812,17.4838943 10.9952456,18.3609707 12.2525092,18.3843709 C11.2688854,19.1973133 10.0305218,19.6809187 8.68533192,19.6809187 C8.45360099,19.6809187 8.22433527,19.6679185 8,19.6393182 C9.2712332,20.4981944 10.7807713,21 12.4028878,21 C17.6866819,21 20.5742795,16.384082 20.5742795,12.3809042 C20.5742795,12.2491694 20.572636,12.1183013 20.5668838,11.9891665 C21.1281329,11.5618951 21.616247,11.0280225 22,10.4204824 C21.4847684,10.6614185 20.9309151,10.8243536 20.350766,10.8971544 Z" id="Shape" fill="#FFFFFF"></path>
                    </g>
                </g>
            </g>
        </g>
    </g>
</svg>